<?xml version="1.0" encoding="UTF-8" standalone="no"?>
<!-- Created with Inkscape (http://www.inkscape.org/) -->

<svg
   width="210mm"
   height="297mm"
   viewBox="0 0 210 297"
   version="1.1"
   id="svg1"
   xml:space="preserve"
   inkscape:version="1.4.1 (93de688d07, 2025-03-30)"
   sodipodi:docname="pv.svg"
   xmlns:inkscape="http://www.inkscape.org/namespaces/inkscape"
   xmlns:sodipodi="http://sodipodi.sourceforge.net/DTD/sodipodi-0.dtd"
   xmlns="http://www.w3.org/2000/svg"
   xmlns:svg="http://www.w3.org/2000/svg"><sodipodi:namedview
     id="namedview1"
     pagecolor="#ffffff"
     bordercolor="#000000"
     borderopacity="0.25"
     inkscape:showpageshadow="2"
     inkscape:pageopacity="0.0"
     inkscape:pagecheckerboard="0"
     inkscape:deskcolor="#d1d1d1"
     inkscape:document-units="mm"
     inkscape:zoom="0.81513047"
     inkscape:cx="410.36375"
     inkscape:cy="561.25984"
     inkscape:window-width="2048"
     inkscape:window-height="1124"
     inkscape:window-x="0"
     inkscape:window-y="0"
     inkscape:window-maximized="1"
     inkscape:current-layer="layer1" /><defs
     id="defs1" /><g
     inkscape:label="Layer 1"
     inkscape:groupmode="layer"
     id="layer1"><path
       style="fill:#000000"
       d="m 98.329887,216.80028 c 0,-18.25625 0,-18.25625 3.307293,-18.25625 3.30729,0 3.30729,0 3.30729,18.25625 0,18.25625 0,18.25625 -3.30729,18.25625 -3.307293,0 -3.307293,0 -3.307293,-18.25625 z M 66.315303,191.82699 c 0,-0.0564 -8.512969,-22.33821 -18.917709,-49.51524 -10.40474,-27.17704 -18.917709,-49.455155 -18.917709,-49.506929 0,-0.05177 24.383737,-0.09413 54.186083,-0.09413 54.186082,0 54.186082,0 73.065282,49.278649 10.38356,27.10325 18.93334,49.42747 18.99952,49.60937 0.096,0.2639 -10.84548,0.33073 -54.14758,0.33073 -29.847336,0 -54.267887,-0.0461 -54.267887,-0.10245 z m 99.897217,-7.23973 c -0.19602,-0.54571 -5.65183,-14.80344 -12.12404,-31.68386 -6.4722,-16.88042 -13.77772,-35.95888 -16.23447,-42.39658 -4.46683,-11.704913 -4.46683,-11.704913 -52.715452,-11.707813 -45.844493,-0.003 -48.239577,0.0202 -48.067116,0.46012 0.09983,0.25466 7.572153,19.780913 16.605166,43.391673 16.423662,42.92864 16.423662,42.92864 64.657982,42.92864 48.23432,0 48.23432,0 47.87793,-0.99218 z m -91.636205,-5.82084 c -0.103976,-0.25466 -2.992247,-7.78536 -6.418379,-16.73489 -6.229332,-16.27188 -6.229332,-16.27188 12.542798,-16.3398 10.324672,-0.0374 18.810263,-0.0298 18.856868,0.0168 0.09235,0.0923 12.795198,33.28081 12.795198,33.42974 0,0.0501 -8.45717,0.0911 -18.793717,0.0911 -17.650375,0 -18.805222,-0.0282 -18.982768,-0.46302 z m 44.677925,-0.13229 c -4.91381,-12.7624 -12.45769,-32.61301 -12.45769,-32.78057 0,-0.12441 8.4407,-0.2262 18.75711,-0.2262 17.61823,0 18.76815,0.0281 18.93902,0.46302 1.30175,3.31347 12.57471,32.89638 12.57471,32.99902 0,0.077 -8.45639,0.14004 -18.79197,0.14004 -18.79197,0 -18.79197,0 -19.02118,-0.59531 z M 59.036674,138.41746 c -0.112466,-0.3145 -12.062228,-31.57317 -12.441027,-32.54375 -0.171089,-0.43837 0.824439,-0.46269 18.699161,-0.45676 18.87987,0.006 18.87987,0.006 25.097579,16.28863 3.419739,8.95531 6.256204,16.45343 6.303254,16.66249 0.07374,0.32768 -2.510064,0.38012 -18.727575,0.38012 -14.81103,0 -18.838281,-0.0703 -18.931392,-0.33073 z m 44.097916,-1.71979 c -2.15162,-5.58469 -11.256484,-29.42886 -11.568021,-30.29479 -0.356959,-0.99219 -0.356959,-0.99219 18.482861,-0.99114 18.83983,0.001 18.83983,0.001 25.12616,16.47031 3.45748,9.0581 6.28522,16.55856 6.28385,16.6677 -0.001,0.10915 -8.44726,0.19844 -18.76866,0.19844 -18.76618,0 -18.76618,0 -19.55619,-2.05052 z m 58.85227,-20.53786 c -1.86598,-2.1416 -3.48036,-3.85868 -3.58751,-3.81574 -0.10714,0.043 -1.17197,1.20917 -2.36627,2.59162 -1.19431,1.38245 -2.26893,2.54834 -2.38806,2.59087 -0.11913,0.0425 -0.27834,-0.0765 -0.3538,-0.26458 -0.0754,-0.18805 -2.72302,-7.06894 -5.88347,-15.29087 -3.16046,-8.221932 -5.80504,-15.097792 -5.87684,-15.279693 -0.0997,-0.252673 -1.74293,-0.330729 -6.96233,-0.330729 -6.83177,0 -6.83177,0 -11.34878,-2.711359 -2.48435,-1.491247 -4.51693,-2.771169 -4.51685,-2.844271 8e-5,-0.0731 1.81579,-1.236609 4.0349,-2.585572 2.21911,-1.348963 4.2052,-2.559981 4.41353,-2.691151 0.2977,-0.187437 -0.31116,-1.088905 -2.84427,-4.211141 -1.77268,-2.184957 -3.22306,-4.023349 -3.22306,-4.085314 0,-0.06197 2.26219,-0.562283 5.02708,-1.111818 2.7649,-0.549534 5.02709,-1.089592 5.02709,-1.200129 0,-0.110537 -0.72129,-2.309671 -1.60287,-4.886964 -0.88158,-2.577294 -1.55194,-4.736916 -1.4897,-4.799161 0.0623,-0.06224 2.33961,0.24834 5.06081,0.690187 2.7212,0.441847 4.98135,0.803359 5.02256,0.803359 0.0412,0 0.13915,-2.269178 0.21766,-5.042617 0.0785,-2.77344 0.20441,-5.104279 0.27977,-5.179643 0.0754,-0.07536 2.11613,0.959647 4.53505,2.300024 2.41891,1.340377 4.4644,2.370663 4.54554,2.289523 0.0811,-0.08114 0.91895,-2.150957 1.8618,-4.599595 0.94285,-2.448637 1.80414,-4.544201 1.91397,-4.65681 0.10982,-0.112608 1.5872,1.388642 3.28306,3.33611 1.69586,1.947469 3.24724,3.676845 3.44752,3.843057 0.29241,0.242685 1.01011,-0.450359 3.64396,-3.518805 1.8039,-2.101556 3.35225,-3.828094 3.44076,-3.836752 0.0885,-0.0087 0.98148,2.125326 1.98437,4.742186 1.0029,2.616861 1.91091,4.759986 2.01781,4.762501 0.10689,0.0025 2.11607,-1.066992 4.46483,-2.376679 2.34876,-1.309688 4.37466,-2.38125 4.50199,-2.38125 0.12734,0 0.23153,2.321718 0.23153,5.159375 0,2.837656 0.0706,5.159375 0.15698,5.159375 0.0863,0 2.35679,-0.357188 5.04544,-0.79375 2.68865,-0.436563 4.99425,-0.79375 5.12356,-0.79375 0.12931,0 -0.53379,2.21253 -1.47356,4.916734 -0.93977,2.704203 -1.70867,4.953827 -1.70867,4.999164 0,0.04534 2.32205,0.528872 5.16012,1.074522 3.61583,0.695184 5.09251,1.07966 4.93419,1.28469 -0.12427,0.160929 -1.55336,1.918148 -3.17575,3.90493 -1.6224,1.986782 -2.94981,3.733426 -2.94981,3.88143 0,0.148004 1.905,1.426611 4.23333,2.841348 2.32833,1.414738 4.23333,2.658671 4.23333,2.764297 0,0.105626 -1.75617,1.238817 -3.9026,2.518203 -2.14643,1.279386 -4.1071,2.464502 -4.35704,2.63359 -0.40382,0.273189 -0.0869,0.762131 2.845,4.389576 3.29944,4.082139 3.29944,4.082139 -1.77388,5.075729 -2.79032,0.54648 -5.10362,1.02391 -5.14068,1.06096 -0.037,0.037 0.69653,2.30779 1.63018,5.046083 1.69755,4.97872 1.69755,4.97872 0.97276,4.82936 -2.399,-0.49436 -9.22514,-1.47186 -9.51138,-1.36203 -0.26252,0.10074 -0.34152,1.30251 -0.34152,5.19476 0,4.71354 -0.032,5.05146 -0.46303,4.88686 -0.25466,-0.0973 -2.28533,-1.18156 -4.51261,-2.40956 -2.22727,-1.228 -4.13227,-2.23085 -4.23333,-2.22855 -0.10106,0.002 -0.87597,1.818 -1.72203,4.03489 -0.84605,2.2169 -1.68449,4.37859 -1.86318,4.80375 -0.32491,0.77303 -0.32491,0.77303 -3.7176,-3.12078 z"
       id="path1" /></g></svg>
