<?xml version="1.0" encoding="UTF-8" standalone="no"?>
<!-- Created with Inkscape (http://www.inkscape.org/) -->

<svg
   width="210mm"
   height="297mm"
   viewBox="0 0 210 297"
   version="1.1"
   id="svg1"
   xml:space="preserve"
   inkscape:version="1.4.1 (93de688d07, 2025-03-30)"
   sodipodi:docname="sun.svg"
   xmlns:inkscape="http://www.inkscape.org/namespaces/inkscape"
   xmlns:sodipodi="http://sodipodi.sourceforge.net/DTD/sodipodi-0.dtd"
   xmlns="http://www.w3.org/2000/svg"
   xmlns:svg="http://www.w3.org/2000/svg"><sodipodi:namedview
     id="namedview1"
     pagecolor="#ffffff"
     bordercolor="#000000"
     borderopacity="0.25"
     inkscape:showpageshadow="2"
     inkscape:pageopacity="0.0"
     inkscape:pagecheckerboard="0"
     inkscape:deskcolor="#d1d1d1"
     inkscape:document-units="mm"
     inkscape:zoom="0.81513047"
     inkscape:cx="396.86898"
     inkscape:cy="561.25984"
     inkscape:window-width="2048"
     inkscape:window-height="1124"
     inkscape:window-x="0"
     inkscape:window-y="0"
     inkscape:window-maximized="1"
     inkscape:current-layer="layer1" /><defs
     id="defs1" /><g
     inkscape:label="Layer 1"
     inkscape:groupmode="layer"
     id="layer1"><path
       style="fill:#000000"
       d="m 159.32301,218.35945 c -1.00432,-0.12463 -1.03595,-0.27833 -0.33858,-1.64529 0.48253,-0.94584 1.18748,-1.69104 4.17566,-4.41408 0.71635,-0.65278 1.18559,-1.34082 1.29158,-1.89383 0.15801,-0.8244 0.0378,-0.99255 -2.36412,-3.30729 -2.76187,-2.66162 -3.01669,-3.18796 -2.77272,-5.72709 0.16353,-1.7018 0.90145,-2.66273 3.37674,-4.39721 3.50619,-2.45685 3.54924,-3.77755 0.22091,-6.77799 -1.18196,-1.06552 -2.30941,-2.32118 -2.50544,-2.79036 -0.46076,-1.10276 -0.45445,-2.76909 0.0147,-3.89203 0.3978,-0.95207 2.26171,-3.16458 2.48113,-2.94516 0.0727,0.0727 -0.32666,0.79857 -0.88755,1.61296 -0.8635,1.25376 -1.01935,1.69077 -1.01682,2.8513 0.004,1.78201 0.45083,2.42245 2.90185,4.15815 2.23488,1.58264 2.95554,2.55291 3.19527,4.30196 0.23114,1.68633 -0.56969,3.2389 -2.4947,4.83645 -2.21567,1.83878 -2.69543,2.47845 -2.69695,3.59588 -0.001,1.08472 0.31986,1.44848 3.1576,3.57461 2.08365,1.56112 2.9265,2.99887 2.9265,4.99203 0,1.87429 -0.94613,3.56328 -3.40078,6.07086 -2.10821,2.15369 -2.18154,2.1787 -5.26432,1.79613 z m 13.16561,-2.1237 c 0.003,-1.34201 0.65728,-2.98628 2.07437,-5.21118 1.05359,-1.65419 1.12548,-3.07627 0.19891,-3.93498 -0.349,-0.32344 -1.465,-0.85554 -2.47999,-1.18244 -3.40611,-1.09701 -4.89856,-2.76472 -4.89856,-5.4738 0,-1.48856 0.25291,-2.07262 2.06308,-4.76447 1.12908,-1.67901 1.23024,-1.95584 1.10871,-3.03397 -0.1672,-1.48348 -0.87927,-2.14015 -3.1455,-2.90084 -2.56944,-0.86246 -3.67038,-1.59649 -4.36261,-2.90869 -0.8001,-1.51665 -0.78392,-2.9796 0.0546,-4.94052 0.64093,-1.49878 0.66364,-1.52068 0.52677,-0.50797 -0.45295,3.35166 -0.44019,3.678 0.18589,4.75549 0.64788,1.11501 1.52142,1.58206 4.48469,2.39781 1.95518,0.53824 3.08499,1.32889 3.76712,2.63629 0.90483,1.73423 0.726,3.13116 -0.72974,5.7006 -1.48415,2.61956 -1.65548,3.198 -1.24249,4.19503 0.36233,0.87474 1.39214,1.4683 3.45045,1.98877 2.1326,0.53925 2.74734,0.82088 3.78989,1.73624 2.08536,1.83097 2.2796,4.66479 0.57164,8.33977 -0.54105,1.16417 -1.08341,2.37789 -1.20523,2.69715 -0.16345,0.42833 -0.70029,0.72307 -2.04816,1.12448 -1.00466,0.2992 -1.90311,0.544 -1.99656,0.544 -0.0934,0 -0.16875,-0.56555 -0.16733,-1.25677 z m -25.38637,-1.08645 c -0.93696,-0.40394 -1.75339,-0.88391 -1.81429,-1.06661 -0.25949,-0.77847 2.06449,-2.40581 4.5762,-3.20444 1.96371,-0.62438 3.04926,-1.31903 3.48313,-2.22885 0.42035,-0.8815 0.41604,-0.89726 -0.92307,-3.37396 -1.60928,-2.97639 -1.88189,-4.25548 -1.25613,-5.89399 0.80008,-2.09499 2.74246,-3.36839 6.09824,-3.99794 0.48309,-0.0906 1.27741,-0.49794 1.76516,-0.90513 0.78402,-0.65453 0.88683,-0.89022 0.88683,-2.03304 0,-1.06055 -0.21029,-1.64074 -1.17109,-3.2309 -2.32179,-3.8427 -1.64098,-6.49779 2.20351,-8.59346 0.71336,-0.38886 1.34769,-0.65634 1.40963,-0.5944 0.0619,0.0619 -0.55093,0.60281 -1.36193,1.20193 -1.82448,1.34782 -2.31844,2.08177 -2.4694,3.66915 -0.10956,1.15211 -0.0107,1.40388 1.37013,3.48812 1.78923,2.70078 2.14183,3.79802 1.72179,5.35796 -0.57527,2.13636 -1.57878,2.93841 -5.39552,4.3123 -2.86892,1.03272 -3.27228,2.57557 -1.37193,5.24767 1.74144,2.44866 2.07502,3.24041 2.07502,4.9251 0,2.89192 -1.22432,4.33819 -5.34458,6.31345 -1.38245,0.66274 -2.57308,1.2357 -2.64584,1.27323 -0.0728,0.0375 -0.89889,-0.26225 -1.83586,-0.66619 z m 37.84508,-4.04626 c -0.40918,-1.17378 -0.36093,-3.26734 0.13001,-5.64128 0.72998,-3.52982 -0.0711,-4.36952 -4.17765,-4.37922 -3.00917,-0.007 -4.3135,-0.51046 -5.47398,-2.11245 -1.11205,-1.53514 -1.26256,-2.91298 -0.58282,-5.33543 1.31168,-4.67456 0.32253,-6.03406 -4.39888,-6.04587 -2.9918,-0.007 -4.24426,-0.53037 -5.20755,-2.17412 -0.78651,-1.34206 -1.0897,-3.14897 -0.72193,-4.30236 0.2531,-0.79375 0.2531,-0.79375 0.27875,0 0.0652,2.01712 0.37845,2.86697 1.48082,4.01747 1.11486,1.16353 1.11486,1.16353 4.54966,1.09123 3.37593,-0.071 3.45402,-0.0596 4.55629,0.66988 1.56157,1.0334 2.24705,2.62405 2.02984,4.71019 -0.0887,0.85238 -0.23589,2.27371 -0.32699,3.15852 -0.30145,2.92794 0.58421,3.58797 4.40837,3.2853 3.03123,-0.23991 4.38846,0.10568 5.80186,1.47734 1.55101,1.5052 1.92431,3.03298 1.69901,6.95333 -0.18035,3.13826 -0.18035,3.13826 -1.75775,4.29948 -0.86757,0.63867 -1.67172,1.16122 -1.787,1.16122 -0.11528,0 -0.3403,-0.37496 -0.50006,-0.83323 z m -49.50438,-3.81986 c -1.24086,-1.18358 -1.52074,-1.58914 -1.28922,-1.86809 0.54347,-0.65486 2.91032,-1.15164 5.50584,-1.15564 4.24507,-0.007 4.80997,-0.65326 4.10648,-4.70118 -0.52761,-3.03591 -0.31456,-4.27812 0.98823,-5.76191 1.30906,-1.49094 2.28383,-1.77766 5.50675,-1.61975 3.24555,0.15902 4.23401,-0.1292 4.90712,-1.43085 0.32766,-0.63362 0.40078,-1.20881 0.28001,-2.20279 -0.39891,-3.28343 -0.48169,-4.65376 -0.32002,-5.2979 0.22537,-0.89794 1.81683,-2.65193 2.74252,-3.02259 0.7173,-0.28722 3.83045,-0.84038 3.97438,-0.70619 0.11042,0.10296 -1.24298,0.60585 -2.47564,0.91989 -1.37487,0.35028 -2.95563,1.90027 -3.18502,3.12303 -0.11111,0.59231 0.0266,1.6344 0.3923,2.96887 0.69562,2.53824 0.71269,3.97034 0.0625,5.24425 -1.0375,2.03281 -2.58281,2.70144 -6.24344,2.70144 -2.06125,0 -2.55238,0.0848 -3.1319,0.54063 -0.96165,0.75643 -1.08769,1.89861 -0.45122,4.08874 0.97337,3.3494 0.59752,5.60045 -1.22371,7.32899 -1.13879,1.08083 -2.51922,1.5388 -5.38985,1.78815 -1.43431,0.12458 -2.73459,0.30485 -2.88951,0.4006 -0.15491,0.0957 -0.99488,-0.50623 -1.8666,-1.3377 z m 59.45146,-5.6092 c -0.68897,-0.7613 -1.16112,-2.13637 -1.65206,-4.81143 -0.37397,-2.03765 -0.59732,-2.64339 -1.19506,-3.24114 -0.93347,-0.93346 -1.48576,-0.92261 -4.23093,0.0831 -2.75506,1.00934 -4.4335,0.97725 -6.00948,-0.1149 -1.50726,-1.04453 -2.15032,-2.37849 -2.33427,-4.84214 -0.0854,-1.1434 -0.27214,-2.464 -0.41505,-2.93467 -0.59457,-1.95817 -2.65865,-2.44149 -5.49857,-1.28752 -0.85929,0.34916 -2.03244,0.71426 -2.60699,0.81133 -2.07431,0.35045 -4.53158,-1.35131 -5.19966,-3.60098 -0.20305,-0.68376 -0.50164,-1.49068 -0.66352,-1.79316 -0.17397,-0.32507 -0.19016,-0.54995 -0.0396,-0.54995 0.14011,0 0.61734,0.76743 1.06052,1.70541 1.45879,3.08754 3.57039,3.8133 6.61829,2.27473 3.26001,-1.64565 5.1362,-1.64221 7.02124,0.0129 0.97946,0.85998 1.48453,2.13594 2.00332,5.06104 0.56957,3.21135 1.93328,3.82846 5.14354,2.32755 3.4996,-1.6362 4.99475,-1.67656 7.18942,-0.19409 1.70202,1.14969 2.41412,2.68945 3.71275,8.02801 0.15349,0.63094 -1.6195,3.53864 -2.15771,3.53864 -0.17512,0 -0.51091,-0.21272 -0.7462,-0.47271 z m -61.16984,-2.63532 c -0.43656,-0.0496 -1.62718,-0.31695 -2.64583,-0.59416 -1.01865,-0.27721 -2.15162,-0.56492 -2.51772,-0.63936 -0.50488,-0.10266 -0.87362,-0.55714 -1.52691,-1.88193 -0.4737,-0.96061 -0.79222,-1.85831 -0.70781,-1.99488 0.35158,-0.56887 3.21217,-0.24569 5.8306,0.6587 3.94233,1.36166 4.62923,1.05101 5.28188,-2.38877 0.55001,-2.89876 0.85306,-3.71981 1.7501,-4.74148 0.96938,-1.10406 3.0188,-1.8427 4.40716,-1.58839 0.53705,0.0984 1.8844,0.58654 2.99413,1.08482 2.44671,1.09862 3.59802,1.15573 4.69475,0.2329 0.92705,-0.78006 0.96022,-0.86525 1.46382,-3.75899 0.20895,-1.20072 0.63216,-2.59125 0.94046,-3.09009 1.0127,-1.63858 3.27268,-2.31076 6.16298,-1.83302 1.66063,0.27448 1.11539,0.65129 -0.67674,0.46768 -1.40022,-0.14346 -1.8469,-0.0802 -2.77426,0.39291 -1.60244,0.8175 -1.97208,1.56195 -2.35555,4.74403 -0.40156,3.33223 -0.99269,4.4348 -2.86309,5.34025 -1.50296,0.72757 -2.99498,0.62137 -5.38133,-0.38304 -2.01073,-0.8463 -3.2244,-0.86997 -4.14189,-0.0808 -0.58221,0.50081 -0.73609,0.93668 -0.95739,2.71198 -0.14503,1.1634 -0.3172,2.4812 -0.3826,2.92845 -0.40384,2.76165 -3.41195,4.77465 -6.59476,4.41317 z m 66.80256,-9.95716 c -0.50672,-0.34637 -1.33803,-1.31174 -1.84735,-2.14526 -1.97778,-3.23666 -2.5376,-3.97116 -3.20399,-4.20375 -1.05153,-0.36701 -1.80349,-0.0491 -3.59441,1.5195 -2.84397,2.49099 -5.29904,2.91474 -7.58512,1.30921 -0.84856,-0.59595 -1.3746,-1.32891 -2.34025,-3.26075 -1.37537,-2.75153 -2.02763,-3.42244 -3.33581,-3.43121 -1.09574,-0.007 -1.62748,0.2765 -3.61232,1.9283 -2.40135,1.99843 -3.43148,2.32165 -5.56456,1.746 -0.75196,-0.20293 -1.49873,-0.75095 -2.57969,-1.89311 -1.91695,-2.0255 -1.99012,-2.57176 -0.10576,-0.78961 1.5965,1.5099 3.03857,2.07932 4.54855,1.79605 0.73339,-0.13759 1.5092,-0.68176 3.00963,-2.11104 1.21722,-1.1595 2.42558,-2.05902 3.03703,-2.26082 2.11853,-0.69918 4.47792,0.27419 5.71628,2.35826 2.19667,3.69681 2.98455,4.43786 4.35317,4.09436 0.3711,-0.0931 1.47821,-0.94257 2.46026,-1.88762 2.19922,-2.11639 3.33197,-2.72207 5.09078,-2.72207 2.52943,0 4.20333,1.14126 6.20906,4.23333 0.61357,0.94588 1.30238,1.874 1.53069,2.06248 0.31716,0.26182 0.36249,0.54277 0.1921,1.19062 -0.12266,0.46637 -0.35429,1.35396 -0.51474,1.97242 -0.3359,1.29479 -0.59317,1.36308 -1.86355,0.49471 z M 129.292,188.02689 c -1.54149,-0.57512 -5.71341,-3.41343 -5.88556,-4.00416 -0.0848,-0.29104 -0.17919,-1.24354 -0.20971,-2.11667 -0.0555,-1.5875 -0.0555,-1.5875 0.69305,-1.53482 1.1602,0.0817 2.82868,1.00104 4.46766,2.46184 3.0482,2.71681 4.04986,2.61317 6.00405,-0.62123 1.4874,-2.46182 2.14169,-3.1546 3.52538,-3.73274 2.18962,-0.91488 4.05082,-0.35104 6.42104,1.94521 0.87312,0.84588 1.88188,1.73367 2.24168,1.97287 1.61587,1.07426 3.27249,0.14965 4.90703,-2.73877 0.61721,-1.09068 1.55603,-2.33419 2.08627,-2.76335 0.85109,-0.68884 1.17264,-0.78106 2.74371,-0.78688 1.56657,-0.006 1.94753,0.0991 3.18195,0.87597 0.77127,0.4854 1.33929,0.94557 1.26227,1.0226 -0.077,0.077 -0.86303,-0.18441 -1.74667,-0.58097 -1.2407,-0.55679 -1.83456,-0.6825 -2.60736,-0.55194 -1.82389,0.30815 -2.48049,0.9389 -3.83292,3.68202 -0.98403,1.9959 -1.48505,2.70573 -2.28209,3.23318 -2.05014,1.35672 -4.06873,1.11018 -6.38855,-0.78027 -2.36956,-1.93099 -2.97103,-2.29334 -3.80677,-2.29334 -1.21464,0 -1.61858,0.4279 -3.12105,3.30614 -1.68534,3.22857 -2.70881,4.08385 -5.09817,4.26037 -0.96614,0.0714 -1.94114,-0.026 -2.55524,-0.25506 z m 38.55843,-8.51846 c -2.80282,-1.49027 -2.87225,-1.98811 -0.10401,-0.7458 1.25105,0.56144 1.76873,0.65936 2.72644,0.51575 1.69649,-0.25441 2.34234,-0.89641 3.70865,-3.68654 1.52892,-3.12221 2.55876,-3.96043 4.86581,-3.96043 1.79185,0 2.04484,0.12119 4.58193,2.19488 1.5676,1.28129 2.13809,1.5969 2.88697,1.59716 1.40924,4.8e-4 1.98371,-0.57847 3.3044,-3.33018 1.03773,-2.16214 1.37775,-2.62344 2.42172,-3.28551 2.51174,-1.59289 4.68764,-1.29063 8.24443,1.14525 1.20625,0.82611 2.29715,1.50201 2.42422,1.50201 0.31467,0 0.46718,0.60984 0.67822,2.71198 0.17602,1.7533 0.16785,1.78583 -0.44684,1.78013 -1.01966,-0.009 -2.9007,-0.99626 -4.45981,-2.33963 -2.12421,-1.83027 -2.66813,-2.15248 -3.63353,-2.15248 -1.0474,0 -1.67137,0.57442 -2.5872,2.38171 -0.86905,1.715 -2.40744,3.42032 -3.49699,3.87645 -1.01154,0.42346 -2.93076,0.46457 -3.93123,0.0842 -0.39382,-0.14973 -1.64561,-1.14672 -2.78175,-2.21552 -2.21544,-2.08412 -2.9681,-2.40737 -4.46558,-1.91784 -0.76618,0.25046 -1.15502,0.67734 -2.15754,2.36861 -0.6726,1.13469 -1.50603,2.37021 -1.85208,2.74559 -1.42617,1.54707 -3.83235,1.84355 -5.92623,0.73022 z m -21.95502,-0.8781 c -1.28123,-0.58835 -1.59821,-0.94562 -3.01068,-3.39344 -1.25104,-2.16806 -1.89297,-2.72354 -3.14742,-2.72354 -0.7286,0 -1.22193,0.32272 -2.85236,1.86593 -2.23378,2.11428 -3.37755,2.70018 -5.27964,2.70455 -2.35373,0.005 -3.81162,-1.09341 -6.7662,-5.09964 -0.94714,-1.28427 -1.05619,-1.57953 -0.92829,-2.51354 0.24776,-1.80929 0.6913,-3.04271 1.09418,-3.04271 0.70301,0 2.51551,1.91511 3.60887,3.81317 2.35317,4.08509 3.321,4.30273 6.46951,1.4548 2.34042,-2.11698 4.30924,-2.55345 6.55715,-1.45364 1.55804,0.76227 2.02258,1.3489 3.48546,4.40141 0.99388,2.07388 1.6696,2.63217 3.18578,2.63217 0.91036,0 1.3545,-0.20057 2.48994,-1.12448 2.95781,-2.40673 3.40594,-2.65305 4.84971,-2.66565 1.78027,-0.0155 3.16323,0.71809 4.62777,2.45495 0.63348,0.75127 1.09407,1.42364 1.02355,1.49417 -0.0705,0.0705 -0.76806,-0.47281 -1.55007,-1.20742 -1.3135,-1.23387 -2.56919,-1.85685 -3.75009,-1.86051 -0.85499,-0.003 -2.13797,0.82761 -3.92436,2.5396 -0.96508,0.92488 -2.07416,1.80306 -2.46462,1.95151 -1.06732,0.40579 -2.53428,0.31596 -3.71819,-0.22769 z m 16.90908,-0.13163 c -0.21414,-0.55805 0.0864,-0.95826 0.71972,-0.95826 0.39972,0 0.51094,0.14732 0.44741,0.59261 -0.0987,0.69161 -0.9408,0.95545 -1.16713,0.36565 z m 4.38987,-0.73825 c -1.58008,-0.44608 -1.37495,-0.61689 0.74084,-0.61689 1.70949,0 2.17629,-0.0991 2.90118,-0.61617 1.23832,-0.88324 1.58828,-1.74864 1.8867,-4.66551 0.30388,-2.97026 0.82218,-3.98126 2.53437,-4.94357 1.39817,-0.78581 3.17347,-0.7379 5.53045,0.14927 3.81175,1.43473 4.99323,0.72921 5.31853,-3.17599 0.1058,-1.27009 0.40456,-2.79657 0.66393,-3.39218 0.90775,-2.08459 2.88545,-3.33189 5.28303,-3.33189 1.50905,0 6.33092,1.1773 6.81209,1.66323 0.62066,0.6268 1.66506,3.33344 1.35919,3.52247 -0.70287,0.4344 -3.37398,0.1088 -5.51373,-0.67211 -2.5803,-0.94169 -3.7582,-1.01989 -4.48065,-0.29744 -0.52289,0.52289 -1.07139,2.0948 -1.07404,3.07802 -0.003,1.13185 -0.84629,3.32892 -1.61266,4.20176 -1.02117,1.16305 -2.77595,1.84436 -4.3061,1.67189 -0.63855,-0.072 -2.07324,-0.56386 -3.1882,-1.09309 -2.4756,-1.17507 -3.55569,-1.22952 -4.65393,-0.23463 -0.61514,0.55726 -0.87212,1.09928 -1.09763,2.31511 -0.60372,3.25495 -1.04248,4.45857 -1.93068,5.29625 -1.36872,1.29087 -3.20675,1.69647 -5.17269,1.14147 z m -5.90216,-1.36999 c -0.22372,-0.34144 -0.58827,-1.02605 -0.81012,-1.52135 -0.5409,-1.20765 -0.93114,-1.65528 -2.02364,-2.32128 -1.31285,-0.80031 -2.49208,-0.70564 -4.76233,0.38235 -2.61715,1.25423 -4.07309,1.42135 -5.66578,0.65034 -1.63388,-0.79094 -2.44204,-2.20724 -2.91039,-5.10046 -0.39895,-2.46452 -0.73597,-3.19517 -1.67012,-3.62079 -1.01714,-0.46345 -1.75718,-0.33468 -3.88558,0.6761 -1.11126,0.52773 -2.53825,1.01787 -3.17109,1.08921 -2.05955,0.23214 -4.30783,-0.86744 -5.40567,-2.64379 -0.70376,-1.13871 -2.24186,-6.47548 -2.02842,-7.03805 0.32951,-0.86854 1.86276,-2.93673 2.18207,-2.9434 0.41718,-0.009 1.5195,1.69788 1.8755,2.9036 0.15038,0.50932 0.41248,1.79381 0.58245,2.85441 0.36226,2.26065 1.19056,3.49559 2.34454,3.49559 0.39424,0 1.72311,-0.35484 2.95304,-0.78853 1.22994,-0.43369 2.65296,-0.78827 3.16229,-0.78794 1.91772,0.001 4.20269,1.58354 4.75711,3.29426 0.14184,0.43766 0.37607,1.85295 0.52052,3.14509 0.29934,2.67775 0.71083,3.47973 2.0787,4.05126 0.92076,0.38472 1.077,0.36544 3.39582,-0.41898 3.19624,-1.08123 4.67471,-1.08936 6.13199,-0.0337 1.16806,0.84614 1.67921,1.6582 2.44526,3.88476 0.53519,1.55555 0.51476,1.72368 -0.0961,0.79132 z m 3.91779,0.14881 c 0.14552,-0.14474 0.94829,-0.458 1.78392,-0.69614 1.83109,-0.52181 3.26746,-1.82359 3.52461,-3.19434 0.11443,-0.60993 -0.0277,-1.72401 -0.41252,-3.23253 -0.67655,-2.65247 -0.60978,-4.08909 0.25509,-5.48848 0.94846,-1.53464 2.29781,-2.05725 5.45864,-2.11418 2.94078,-0.053 3.83243,-0.38543 4.40524,-1.64261 0.24895,-0.54639 0.19571,-1.10267 -0.28355,-2.96256 -0.70903,-2.75166 -0.72979,-4.31321 -0.0761,-5.72945 1.04327,-2.26044 2.8597,-3.16513 7.1713,-3.57173 3.00841,-0.2837 3.00841,-0.2837 4.4264,1.11485 1.41714,1.3977 1.41766,1.39882 0.85665,1.85498 -0.88764,0.72174 -2.30041,0.99563 -5.14921,0.99829 -4.25367,0.004 -5.01127,0.80024 -4.24176,4.45835 0.50995,2.42422 0.50903,3.24792 -0.005,4.48032 -0.62084,1.48851 -1.91038,2.66499 -3.40889,3.11 -1.07852,0.32028 -1.71423,0.33956 -3.47429,0.10534 -1.787,-0.23781 -2.31569,-0.21922 -3.10135,0.10906 -1.32015,0.55159 -1.88406,1.72233 -1.66551,3.45779 0.52835,4.19545 0.50812,5.37137 -0.1096,6.37086 -0.72018,1.16527 -2.21656,2.1542 -3.60443,2.38209 -0.56468,0.0927 -1.38387,0.23264 -1.82044,0.31092 -0.52684,0.0945 -0.70478,0.0538 -0.52916,-0.12083 z m -0.89703,-0.26019 c 0.0585,-0.18442 0.69036,-0.77973 1.40418,-1.32291 1.76608,-1.34391 2.32351,-2.17613 2.46481,-3.67988 0.11226,-1.19469 0.0252,-1.41846 -1.35856,-3.49234 -2.17878,-3.26536 -2.37535,-4.44918 -1.11913,-6.73977 0.63695,-1.16141 1.97641,-2.0213 4.23792,-2.72062 0.85646,-0.26484 1.89825,-0.80012 2.3151,-1.18952 1.18324,-1.1053 1.0377,-2.08331 -0.70105,-4.71097 -1.69041,-2.55462 -1.81723,-2.93784 -1.66565,-5.03338 0.19329,-2.67232 1.34148,-3.84802 5.91421,-6.056 2.12814,-1.02759 2.12814,-1.02759 3.90261,-0.23448 0.97595,0.43621 1.77446,0.94653 1.77446,1.13405 0,0.54777 -2.09016,2.18187 -3.41326,2.6685 -3.81243,1.40221 -4.12398,1.57021 -4.62598,2.49457 -0.56094,1.03287 -0.5727,0.99555 1.45254,4.61182 1.74091,3.10858 1.00288,6.21439 -1.81503,7.63813 -0.69056,0.3489 -1.91342,0.77024 -2.71746,0.93631 -2.57881,0.53261 -3.69747,1.56754 -3.69747,3.42071 0,0.39375 0.55731,1.66592 1.23848,2.82704 0.91506,1.55983 1.26815,2.46258 1.35209,3.45692 0.17551,2.07903 -0.91871,3.88421 -2.98745,4.9285 -0.58208,0.29384 -1.28409,0.72873 -1.56001,0.96644 -0.31264,0.26934 -0.46161,0.30585 -0.39535,0.0969 z m -2.41607,-1.5673 c -0.007,-1.49186 -0.69062,-3.12009 -1.70108,-4.05051 -0.68945,-0.63484 -0.85856,-0.66173 -4.20209,-0.66815 -3.63653,-0.007 -4.50697,-0.22135 -5.50297,-1.35528 -1.32061,-1.50351 -1.56366,-3.14182 -0.92144,-6.21128 0.45643,-2.1815 0.31415,-2.96777 -0.68991,-3.81263 -0.77319,-0.6506 -0.85393,-0.66104 -3.8712,-0.50041 -2.92017,0.15546 -3.1439,0.13046 -4.27217,-0.47743 -1.37263,-0.73955 -2.57349,-2.29862 -2.92333,-3.79536 -0.13355,-0.57136 -0.16702,-2.44483 -0.0744,-4.16328 0.16844,-3.12444 0.16844,-3.12444 1.81511,-4.29948 0.90566,-0.64627 1.70919,-1.17503 1.78562,-1.17503 0.30863,0 0.71989,1.75092 0.71989,3.06489 0,0.76914 -0.18239,2.26546 -0.4053,3.32516 -0.77647,3.69118 -0.25409,4.26546 4.07027,4.47467 3.54818,0.17165 4.40495,0.49843 5.58772,2.13119 1.08725,1.5009 1.22391,2.83412 0.5579,5.44263 -0.76079,2.97972 -0.72218,3.85018 0.2174,4.90176 0.76585,0.85714 0.77463,0.8594 3.9026,1.00627 1.72427,0.081 3.37316,0.28133 3.6642,0.44525 0.87078,0.49047 1.92972,1.73518 2.36721,2.78249 0.45856,1.09776 0.556,3.7902 0.14633,4.0434 -0.16211,0.10019 -0.26683,-0.32927 -0.27039,-1.10887 z m 1.86525,0.94446 c 0.004,-0.20062 0.36299,-0.83481 0.79765,-1.40932 1.47794,-1.95344 1.62165,-4.16203 0.35939,-5.52331 -0.35403,-0.38181 -1.3451,-1.17052 -2.20238,-1.75269 -2.50637,-1.70204 -3.41572,-3.29198 -3.08079,-5.38655 0.24657,-1.54192 1.02308,-2.65585 2.80973,-4.03065 1.93422,-1.48835 2.36737,-2.09668 2.36737,-3.3248 0,-1.03689 -0.19065,-1.24594 -3.42903,-3.75982 -1.98385,-1.54002 -2.52054,-2.53545 -2.52251,-4.67866 -0.002,-2.29605 0.54246,-3.32128 3.21044,-6.04413 2.16318,-2.20767 2.16318,-2.20767 4.19233,-2.01753 2.02418,0.18968 2.02874,0.19186 1.85975,0.88476 -0.28496,1.1684 -1.44068,2.60404 -3.36116,4.17525 -1.98296,1.62231 -2.72506,2.7146 -2.48747,3.66125 0.0832,0.33143 1.09166,1.45037 2.24105,2.48653 2.55731,2.30538 3.03738,3.21019 2.89442,5.45527 -0.12845,2.01719 -0.84024,3.07487 -3.10379,4.61202 -3.83615,2.60507 -3.89289,4.25395 -0.2489,7.23336 0.8506,0.69547 1.74373,1.56544 1.98474,1.93327 0.655,0.99966 0.77295,3.08452 0.24971,4.41379 -0.46259,1.17516 -2.54324,3.70098 -2.53055,3.07196 z m -0.67192,-0.76164 c 0.48668,-3.0093 0.47012,-3.63961 -0.1234,-4.69563 -0.72792,-1.29516 -1.47053,-1.73494 -3.93022,-2.32749 -2.22122,-0.5351 -3.33838,-1.19782 -4.2281,-2.50817 -0.53304,-0.78505 -0.61061,-1.17386 -0.52969,-2.65482 0.0808,-1.4796 0.26225,-2.01691 1.23196,-3.64918 1.48582,-2.50101 1.63108,-3.38687 0.73077,-4.45683 -0.53995,-0.64169 -1.15304,-0.94149 -2.87053,-1.40369 -2.58894,-0.69671 -3.39342,-1.08122 -4.29518,-2.05296 -1.8226,-1.96401 -1.88674,-4.64686 -0.19763,-8.26581 0.57732,-1.23693 1.11241,-2.4352 1.18909,-2.66283 0.13885,-0.41219 3.85347,-1.70314 4.12355,-1.43306 0.0755,0.0755 0.10828,0.70056 0.0728,1.38899 -0.048,0.93152 -0.4328,1.93852 -1.50439,3.93682 -2.15807,4.02439 -1.9481,5.01336 1.28705,6.06211 2.37995,0.77151 3.87604,1.72032 4.54296,2.88111 1.34407,2.33936 1.13416,3.73945 -1.0535,7.02673 -1.14721,1.72385 -1.45391,2.40488 -1.45391,3.2284 0,1.31895 0.92153,2.30517 2.77813,2.97314 4.06905,1.46397 5.07529,2.40095 5.34076,4.97316 0.11778,1.14108 0.0156,1.68661 -0.55808,2.98135 -0.57302,1.29314 -0.67467,1.41433 -0.55245,0.65866 z"
       id="path1" /></g></svg>
