%TF.GenerationSoftware,KiCad,Pcbnew,8.0.6*%
%TF.CreationDate,2024-12-04T14:06:11-08:00*%
%TF.ProjectId,micromppt,6d696372-6f6d-4707-9074-2e6b69636164,rev?*%
%TF.SameCoordinates,Original*%
%TF.FileFunction,Paste,Top*%
%TF.FilePolarity,Positive*%
%FSLAX46Y46*%
G04 Gerber Fmt 4.6, Leading zero omitted, Abs format (unit mm)*
G04 Created by KiCad (PCBNEW 8.0.6) date 2024-12-04 14:06:11*
%MOMM*%
%LPD*%
G01*
G04 APERTURE LIST*
G04 Aperture macros list*
%AMRoundRect*
0 Rectangle with rounded corners*
0 $1 Rounding radius*
0 $2 $3 $4 $5 $6 $7 $8 $9 X,Y pos of 4 corners*
0 Add a 4 corners polygon primitive as box body*
4,1,4,$2,$3,$4,$5,$6,$7,$8,$9,$2,$3,0*
0 Add four circle primitives for the rounded corners*
1,1,$1+$1,$2,$3*
1,1,$1+$1,$4,$5*
1,1,$1+$1,$6,$7*
1,1,$1+$1,$8,$9*
0 Add four rect primitives between the rounded corners*
20,1,$1+$1,$2,$3,$4,$5,0*
20,1,$1+$1,$4,$5,$6,$7,0*
20,1,$1+$1,$6,$7,$8,$9,0*
20,1,$1+$1,$8,$9,$2,$3,0*%
G04 Aperture macros list end*
%ADD10R,1.100000X0.600000*%
%ADD11RoundRect,0.225000X0.225000X0.250000X-0.225000X0.250000X-0.225000X-0.250000X0.225000X-0.250000X0*%
%ADD12RoundRect,0.135000X0.135000X0.185000X-0.135000X0.185000X-0.135000X-0.185000X0.135000X-0.185000X0*%
%ADD13RoundRect,0.135000X-0.135000X-0.185000X0.135000X-0.185000X0.135000X0.185000X-0.135000X0.185000X0*%
%ADD14R,1.300000X2.000000*%
%ADD15R,2.000000X1.600000*%
%ADD16RoundRect,0.140000X-0.140000X-0.170000X0.140000X-0.170000X0.140000X0.170000X-0.140000X0.170000X0*%
%ADD17O,1.450000X0.350000*%
%ADD18RoundRect,0.140000X-0.170000X0.140000X-0.170000X-0.140000X0.170000X-0.140000X0.170000X0.140000X0*%
%ADD19R,1.550000X5.600000*%
%ADD20RoundRect,0.225000X-0.225000X-0.250000X0.225000X-0.250000X0.225000X0.250000X-0.225000X0.250000X0*%
%ADD21RoundRect,0.250000X-0.312500X-0.625000X0.312500X-0.625000X0.312500X0.625000X-0.312500X0.625000X0*%
%ADD22RoundRect,0.225000X0.250000X-0.225000X0.250000X0.225000X-0.250000X0.225000X-0.250000X-0.225000X0*%
G04 APERTURE END LIST*
D10*
%TO.C,U5*%
X76550000Y-48300000D03*
X76550000Y-49250000D03*
X76550000Y-50200000D03*
X79250000Y-50200000D03*
X79250000Y-49250000D03*
X79250000Y-48300000D03*
%TD*%
D11*
%TO.C,C1*%
X70750000Y-52000000D03*
X69200000Y-52000000D03*
%TD*%
D12*
%TO.C,R1*%
X83510000Y-52250000D03*
X82490000Y-52250000D03*
%TD*%
D13*
%TO.C,R2*%
X80390000Y-57600000D03*
X81410000Y-57600000D03*
%TD*%
D14*
%TO.C,U3*%
X77000000Y-43200000D03*
D15*
X78250000Y-40300000D03*
D14*
X79500000Y-43200000D03*
%TD*%
D16*
%TO.C,C4*%
X85600000Y-43600000D03*
X86560000Y-43600000D03*
%TD*%
D17*
%TO.C,U1*%
X80282500Y-45120000D03*
X80282500Y-45780000D03*
X80282500Y-46430000D03*
X80282500Y-47080000D03*
X86142500Y-47080000D03*
X86142500Y-46430000D03*
X86142500Y-45780000D03*
X86142500Y-45120000D03*
%TD*%
D18*
%TO.C,C6*%
X87712500Y-45620000D03*
X87712500Y-46580000D03*
%TD*%
D13*
%TO.C,R4*%
X88952500Y-45540000D03*
X89972500Y-45540000D03*
%TD*%
%TO.C,R5*%
X88962500Y-46540000D03*
X89982500Y-46540000D03*
%TD*%
D16*
%TO.C,C5*%
X86000000Y-48000000D03*
X86960000Y-48000000D03*
%TD*%
D19*
%TO.C,U4*%
X69980000Y-47750000D03*
X74020000Y-47750000D03*
%TD*%
D20*
%TO.C,C2*%
X80850000Y-51000000D03*
X82400000Y-51000000D03*
%TD*%
D21*
%TO.C,R6*%
X81000000Y-49100000D03*
X83925000Y-49100000D03*
%TD*%
D14*
%TO.C,U2*%
X77650000Y-55800000D03*
D15*
X78900000Y-52900000D03*
D14*
X80150000Y-55800000D03*
%TD*%
D22*
%TO.C,C3*%
X90000000Y-52050000D03*
X90000000Y-50500000D03*
%TD*%
D13*
%TO.C,R3*%
X73740000Y-42000000D03*
X74760000Y-42000000D03*
%TD*%
M02*
