%TF.GenerationSoftware,KiCad,Pcbnew,8.0.6*%
%TF.CreationDate,2024-12-04T14:05:33-08:00*%
%TF.ProjectId,micromppt,6d696372-6f6d-4707-9074-2e6b69636164,rev?*%
%TF.SameCoordinates,Original*%
%TF.FileFunction,Drillmap*%
%TF.FilePolarity,Positive*%
%FSLAX45Y45*%
G04 Gerber Fmt 4.5, Leading zero omitted, Abs format (unit mm)*
G04 Created by KiCad (PCBNEW 8.0.6) date 2024-12-04 14:05:33*
%MOMM*%
%LPD*%
G01*
G04 APERTURE LIST*
%ADD10C,0.200000*%
G04 APERTURE END LIST*
D10*
X9400000Y-6775000D02*
X9400000Y-4590000D01*
X6500000Y-4610000D02*
X6500000Y-6775000D01*
X6500000Y-4610000D02*
X7200000Y-3920000D01*
X9400000Y-4590000D02*
X8700000Y-3920000D01*
X8700000Y-3920000D02*
X7200000Y-3920000D01*
X6500000Y-6775000D02*
X9400000Y-6775000D01*
X6750777Y-7096484D02*
X6750777Y-6896484D01*
X6750777Y-6896484D02*
X6798396Y-6896484D01*
X6798396Y-6896484D02*
X6826967Y-6906008D01*
X6826967Y-6906008D02*
X6846015Y-6925055D01*
X6846015Y-6925055D02*
X6855539Y-6944103D01*
X6855539Y-6944103D02*
X6865062Y-6982198D01*
X6865062Y-6982198D02*
X6865062Y-7010769D01*
X6865062Y-7010769D02*
X6855539Y-7048865D01*
X6855539Y-7048865D02*
X6846015Y-7067912D01*
X6846015Y-7067912D02*
X6826967Y-7086960D01*
X6826967Y-7086960D02*
X6798396Y-7096484D01*
X6798396Y-7096484D02*
X6750777Y-7096484D01*
X6950777Y-7096484D02*
X6950777Y-6963150D01*
X6950777Y-7001246D02*
X6960301Y-6982198D01*
X6960301Y-6982198D02*
X6969824Y-6972674D01*
X6969824Y-6972674D02*
X6988872Y-6963150D01*
X6988872Y-6963150D02*
X7007920Y-6963150D01*
X7074586Y-7096484D02*
X7074586Y-6963150D01*
X7074586Y-6896484D02*
X7065062Y-6906008D01*
X7065062Y-6906008D02*
X7074586Y-6915531D01*
X7074586Y-6915531D02*
X7084110Y-6906008D01*
X7084110Y-6906008D02*
X7074586Y-6896484D01*
X7074586Y-6896484D02*
X7074586Y-6915531D01*
X7198396Y-7096484D02*
X7179348Y-7086960D01*
X7179348Y-7086960D02*
X7169824Y-7067912D01*
X7169824Y-7067912D02*
X7169824Y-6896484D01*
X7303158Y-7096484D02*
X7284110Y-7086960D01*
X7284110Y-7086960D02*
X7274586Y-7067912D01*
X7274586Y-7067912D02*
X7274586Y-6896484D01*
X7531729Y-7096484D02*
X7531729Y-6896484D01*
X7531729Y-6896484D02*
X7598396Y-7039341D01*
X7598396Y-7039341D02*
X7665062Y-6896484D01*
X7665062Y-6896484D02*
X7665062Y-7096484D01*
X7846015Y-7096484D02*
X7846015Y-6991722D01*
X7846015Y-6991722D02*
X7836491Y-6972674D01*
X7836491Y-6972674D02*
X7817443Y-6963150D01*
X7817443Y-6963150D02*
X7779348Y-6963150D01*
X7779348Y-6963150D02*
X7760301Y-6972674D01*
X7846015Y-7086960D02*
X7826967Y-7096484D01*
X7826967Y-7096484D02*
X7779348Y-7096484D01*
X7779348Y-7096484D02*
X7760301Y-7086960D01*
X7760301Y-7086960D02*
X7750777Y-7067912D01*
X7750777Y-7067912D02*
X7750777Y-7048865D01*
X7750777Y-7048865D02*
X7760301Y-7029817D01*
X7760301Y-7029817D02*
X7779348Y-7020293D01*
X7779348Y-7020293D02*
X7826967Y-7020293D01*
X7826967Y-7020293D02*
X7846015Y-7010769D01*
X7941253Y-6963150D02*
X7941253Y-7163150D01*
X7941253Y-6972674D02*
X7960301Y-6963150D01*
X7960301Y-6963150D02*
X7998396Y-6963150D01*
X7998396Y-6963150D02*
X8017443Y-6972674D01*
X8017443Y-6972674D02*
X8026967Y-6982198D01*
X8026967Y-6982198D02*
X8036491Y-7001246D01*
X8036491Y-7001246D02*
X8036491Y-7058388D01*
X8036491Y-7058388D02*
X8026967Y-7077436D01*
X8026967Y-7077436D02*
X8017443Y-7086960D01*
X8017443Y-7086960D02*
X7998396Y-7096484D01*
X7998396Y-7096484D02*
X7960301Y-7096484D01*
X7960301Y-7096484D02*
X7941253Y-7086960D01*
X8122205Y-7077436D02*
X8131729Y-7086960D01*
X8131729Y-7086960D02*
X8122205Y-7096484D01*
X8122205Y-7096484D02*
X8112682Y-7086960D01*
X8112682Y-7086960D02*
X8122205Y-7077436D01*
X8122205Y-7077436D02*
X8122205Y-7096484D01*
X8122205Y-6972674D02*
X8131729Y-6982198D01*
X8131729Y-6982198D02*
X8122205Y-6991722D01*
X8122205Y-6991722D02*
X8112682Y-6982198D01*
X8112682Y-6982198D02*
X8122205Y-6972674D01*
X8122205Y-6972674D02*
X8122205Y-6991722D01*
M02*
