%TF.GenerationSoftware,KiCad,Pcbnew,8.0.6*%
%TF.CreationDate,2024-12-04T14:06:11-08:00*%
%TF.ProjectId,micromppt,6d696372-6f6d-4707-9074-2e6b69636164,rev?*%
%TF.SameCoordinates,Original*%
%TF.FileFunction,Copper,L2,Bot*%
%TF.FilePolarity,Positive*%
%FSLAX46Y46*%
G04 Gerber Fmt 4.6, Leading zero omitted, Abs format (unit mm)*
G04 Created by KiCad (PCBNEW 8.0.6) date 2024-12-04 14:06:11*
%MOMM*%
%LPD*%
G01*
G04 APERTURE LIST*
%TA.AperFunction,ComponentPad*%
%ADD10C,2.500000*%
%TD*%
%TA.AperFunction,ComponentPad*%
%ADD11C,1.800000*%
%TD*%
%TA.AperFunction,ViaPad*%
%ADD12C,0.800000*%
%TD*%
%TA.AperFunction,Conductor*%
%ADD13C,0.250000*%
%TD*%
G04 APERTURE END LIST*
D10*
%TO.P,J2,1*%
%TO.N,gnd*%
X84250000Y-54750000D03*
%TO.P,J2,2*%
%TO.N,vcc-2*%
X89250000Y-54750000D03*
D11*
%TO.P,J2,3*%
%TO.N,N/C*%
X92250000Y-64750000D03*
%TO.P,J2,4*%
X81250000Y-64750000D03*
%TD*%
D10*
%TO.P,J1,1*%
%TO.N,gnd*%
X69500000Y-54750000D03*
%TO.P,J1,2*%
%TO.N,vcc-1*%
X74500000Y-54750000D03*
D11*
%TO.P,J1,3*%
%TO.N,N/C*%
X77500000Y-64750000D03*
%TO.P,J1,4*%
X66500000Y-64750000D03*
%TD*%
D12*
%TO.N,gnd*%
X77500000Y-51500000D03*
X76750000Y-47500000D03*
X81750000Y-43500000D03*
X87750000Y-50750000D03*
X86000000Y-50750000D03*
X68000000Y-45250000D03*
X68000000Y-47000000D03*
X68000000Y-48750000D03*
X68000000Y-50500000D03*
X73027028Y-44000000D03*
X78500000Y-45250000D03*
X74500000Y-44000000D03*
X76550000Y-51000000D03*
X81900000Y-57600000D03*
X87300000Y-48000000D03*
X87000000Y-43600000D03*
X90000000Y-49975000D03*
X81900000Y-46300000D03*
X68500000Y-52000000D03*
X79500000Y-43200000D03*
X82462653Y-51062653D03*
%TO.N,vout*%
X91000000Y-45400000D03*
X79000000Y-51100000D03*
%TO.N,vcc-2*%
X91500000Y-53000000D03*
X91000000Y-46600000D03*
%TD*%
D13*
%TO.N,vout*%
X84800000Y-45400000D02*
X91000000Y-45400000D01*
X79000000Y-51100000D02*
X79100000Y-51100000D01*
X79100000Y-51100000D02*
X84800000Y-45400000D01*
%TO.N,vcc-2*%
X92000000Y-52111769D02*
X92000000Y-52231769D01*
X91760000Y-48598333D02*
X92760000Y-48598333D01*
X91000000Y-48958333D02*
X91000000Y-48838333D01*
X91000000Y-51511769D02*
X91000000Y-51631769D01*
X92240000Y-50671769D02*
X92760000Y-50671769D01*
X91760000Y-49198333D02*
X91240000Y-49198333D01*
X92760000Y-51271769D02*
X92240000Y-51271769D01*
X92000000Y-47600000D02*
X91997189Y-47597189D01*
X92000000Y-47758333D02*
X92000000Y-47638333D01*
X92760000Y-47998333D02*
X92240000Y-47998333D01*
X91673858Y-52826142D02*
X91500000Y-53000000D01*
X91240000Y-48598333D02*
X91760000Y-48598333D01*
X93000000Y-50911769D02*
X93000000Y-51031769D01*
X93000000Y-48358333D02*
X93000000Y-48238333D01*
X92000000Y-52500000D02*
X91673858Y-52826142D01*
X91997189Y-47597189D02*
X91000000Y-46600000D01*
X92000000Y-52231769D02*
X92000000Y-52500000D01*
X92000000Y-49438333D02*
X92000000Y-50431769D01*
X92240000Y-51271769D02*
X91240000Y-51271769D01*
X91240000Y-51871769D02*
X91760000Y-51871769D01*
X92000000Y-47638333D02*
X92000000Y-47600000D01*
X92240000Y-47998333D02*
G75*
G02*
X91999967Y-47758333I0J240033D01*
G01*
X93000000Y-51031769D02*
G75*
G02*
X92760000Y-51271800I-240000J-31D01*
G01*
X92760000Y-50671769D02*
G75*
G02*
X93000031Y-50911769I0J-240031D01*
G01*
X91240000Y-49198333D02*
G75*
G02*
X90999967Y-48958333I0J240033D01*
G01*
X93000000Y-48238333D02*
G75*
G03*
X92760000Y-47998300I-240000J33D01*
G01*
X91240000Y-51271769D02*
G75*
G03*
X90999969Y-51511769I0J-240031D01*
G01*
X91000000Y-48838333D02*
G75*
G02*
X91240000Y-48598300I240000J33D01*
G01*
X91000000Y-51631769D02*
G75*
G03*
X91240000Y-51871800I240000J-31D01*
G01*
X91760000Y-51871769D02*
G75*
G02*
X92000031Y-52111769I0J-240031D01*
G01*
X92760000Y-48598333D02*
G75*
G03*
X93000033Y-48358333I0J240033D01*
G01*
X92000000Y-50431769D02*
G75*
G03*
X92240000Y-50671800I240000J-31D01*
G01*
X92000000Y-49438333D02*
G75*
G03*
X91760000Y-49198300I-240000J33D01*
G01*
%TD*%
%TA.AperFunction,Conductor*%
%TO.N,gnd*%
G36*
X87017259Y-39219685D02*
G01*
X87035962Y-39234420D01*
X93961741Y-45863381D01*
X93996560Y-45923956D01*
X94000000Y-45952960D01*
X94000000Y-67626000D01*
X93980315Y-67693039D01*
X93927511Y-67738794D01*
X93876000Y-67750000D01*
X65124000Y-67750000D01*
X65056961Y-67730315D01*
X65011206Y-67677511D01*
X65000000Y-67626000D01*
X65000000Y-65408200D01*
X65019685Y-65341161D01*
X65072489Y-65295406D01*
X65141647Y-65285462D01*
X65205203Y-65314487D01*
X65237556Y-65358390D01*
X65264075Y-65418848D01*
X65391016Y-65613147D01*
X65391019Y-65613151D01*
X65391021Y-65613153D01*
X65548216Y-65783913D01*
X65548219Y-65783915D01*
X65548222Y-65783918D01*
X65731365Y-65926464D01*
X65731371Y-65926468D01*
X65731374Y-65926470D01*
X65935497Y-66036936D01*
X66049487Y-66076068D01*
X66155015Y-66112297D01*
X66155017Y-66112297D01*
X66155019Y-66112298D01*
X66383951Y-66150500D01*
X66383952Y-66150500D01*
X66616048Y-66150500D01*
X66616049Y-66150500D01*
X66844981Y-66112298D01*
X67064503Y-66036936D01*
X67268626Y-65926470D01*
X67451784Y-65783913D01*
X67608979Y-65613153D01*
X67735924Y-65418849D01*
X67829157Y-65206300D01*
X67886134Y-64981305D01*
X67905300Y-64750000D01*
X67905300Y-64749993D01*
X76094700Y-64749993D01*
X76094700Y-64750006D01*
X76113864Y-64981297D01*
X76113866Y-64981308D01*
X76170842Y-65206300D01*
X76264075Y-65418848D01*
X76391016Y-65613147D01*
X76391019Y-65613151D01*
X76391021Y-65613153D01*
X76548216Y-65783913D01*
X76548219Y-65783915D01*
X76548222Y-65783918D01*
X76731365Y-65926464D01*
X76731371Y-65926468D01*
X76731374Y-65926470D01*
X76935497Y-66036936D01*
X77049487Y-66076068D01*
X77155015Y-66112297D01*
X77155017Y-66112297D01*
X77155019Y-66112298D01*
X77383951Y-66150500D01*
X77383952Y-66150500D01*
X77616048Y-66150500D01*
X77616049Y-66150500D01*
X77844981Y-66112298D01*
X78064503Y-66036936D01*
X78268626Y-65926470D01*
X78451784Y-65783913D01*
X78608979Y-65613153D01*
X78735924Y-65418849D01*
X78829157Y-65206300D01*
X78886134Y-64981305D01*
X78905300Y-64750000D01*
X78905300Y-64749993D01*
X79844700Y-64749993D01*
X79844700Y-64750006D01*
X79863864Y-64981297D01*
X79863866Y-64981308D01*
X79920842Y-65206300D01*
X80014075Y-65418848D01*
X80141016Y-65613147D01*
X80141019Y-65613151D01*
X80141021Y-65613153D01*
X80298216Y-65783913D01*
X80298219Y-65783915D01*
X80298222Y-65783918D01*
X80481365Y-65926464D01*
X80481371Y-65926468D01*
X80481374Y-65926470D01*
X80685497Y-66036936D01*
X80799487Y-66076068D01*
X80905015Y-66112297D01*
X80905017Y-66112297D01*
X80905019Y-66112298D01*
X81133951Y-66150500D01*
X81133952Y-66150500D01*
X81366048Y-66150500D01*
X81366049Y-66150500D01*
X81594981Y-66112298D01*
X81814503Y-66036936D01*
X82018626Y-65926470D01*
X82201784Y-65783913D01*
X82358979Y-65613153D01*
X82485924Y-65418849D01*
X82579157Y-65206300D01*
X82636134Y-64981305D01*
X82655300Y-64750000D01*
X82655300Y-64749993D01*
X90844700Y-64749993D01*
X90844700Y-64750006D01*
X90863864Y-64981297D01*
X90863866Y-64981308D01*
X90920842Y-65206300D01*
X91014075Y-65418848D01*
X91141016Y-65613147D01*
X91141019Y-65613151D01*
X91141021Y-65613153D01*
X91298216Y-65783913D01*
X91298219Y-65783915D01*
X91298222Y-65783918D01*
X91481365Y-65926464D01*
X91481371Y-65926468D01*
X91481374Y-65926470D01*
X91685497Y-66036936D01*
X91799487Y-66076068D01*
X91905015Y-66112297D01*
X91905017Y-66112297D01*
X91905019Y-66112298D01*
X92133951Y-66150500D01*
X92133952Y-66150500D01*
X92366048Y-66150500D01*
X92366049Y-66150500D01*
X92594981Y-66112298D01*
X92814503Y-66036936D01*
X93018626Y-65926470D01*
X93201784Y-65783913D01*
X93358979Y-65613153D01*
X93485924Y-65418849D01*
X93579157Y-65206300D01*
X93636134Y-64981305D01*
X93655300Y-64750000D01*
X93655300Y-64749993D01*
X93636135Y-64518702D01*
X93636133Y-64518691D01*
X93579157Y-64293699D01*
X93485924Y-64081151D01*
X93358983Y-63886852D01*
X93358980Y-63886849D01*
X93358979Y-63886847D01*
X93201784Y-63716087D01*
X93201779Y-63716083D01*
X93201777Y-63716081D01*
X93018634Y-63573535D01*
X93018628Y-63573531D01*
X92814504Y-63463064D01*
X92814495Y-63463061D01*
X92594984Y-63387702D01*
X92423282Y-63359050D01*
X92366049Y-63349500D01*
X92133951Y-63349500D01*
X92088164Y-63357140D01*
X91905015Y-63387702D01*
X91685504Y-63463061D01*
X91685495Y-63463064D01*
X91481371Y-63573531D01*
X91481365Y-63573535D01*
X91298222Y-63716081D01*
X91298219Y-63716084D01*
X91141016Y-63886852D01*
X91014075Y-64081151D01*
X90920842Y-64293699D01*
X90863866Y-64518691D01*
X90863864Y-64518702D01*
X90844700Y-64749993D01*
X82655300Y-64749993D01*
X82636135Y-64518702D01*
X82636133Y-64518691D01*
X82579157Y-64293699D01*
X82485924Y-64081151D01*
X82358983Y-63886852D01*
X82358980Y-63886849D01*
X82358979Y-63886847D01*
X82201784Y-63716087D01*
X82201779Y-63716083D01*
X82201777Y-63716081D01*
X82018634Y-63573535D01*
X82018628Y-63573531D01*
X81814504Y-63463064D01*
X81814495Y-63463061D01*
X81594984Y-63387702D01*
X81423282Y-63359050D01*
X81366049Y-63349500D01*
X81133951Y-63349500D01*
X81088164Y-63357140D01*
X80905015Y-63387702D01*
X80685504Y-63463061D01*
X80685495Y-63463064D01*
X80481371Y-63573531D01*
X80481365Y-63573535D01*
X80298222Y-63716081D01*
X80298219Y-63716084D01*
X80141016Y-63886852D01*
X80014075Y-64081151D01*
X79920842Y-64293699D01*
X79863866Y-64518691D01*
X79863864Y-64518702D01*
X79844700Y-64749993D01*
X78905300Y-64749993D01*
X78886135Y-64518702D01*
X78886133Y-64518691D01*
X78829157Y-64293699D01*
X78735924Y-64081151D01*
X78608983Y-63886852D01*
X78608980Y-63886849D01*
X78608979Y-63886847D01*
X78451784Y-63716087D01*
X78451779Y-63716083D01*
X78451777Y-63716081D01*
X78268634Y-63573535D01*
X78268628Y-63573531D01*
X78064504Y-63463064D01*
X78064495Y-63463061D01*
X77844984Y-63387702D01*
X77673282Y-63359050D01*
X77616049Y-63349500D01*
X77383951Y-63349500D01*
X77338164Y-63357140D01*
X77155015Y-63387702D01*
X76935504Y-63463061D01*
X76935495Y-63463064D01*
X76731371Y-63573531D01*
X76731365Y-63573535D01*
X76548222Y-63716081D01*
X76548219Y-63716084D01*
X76391016Y-63886852D01*
X76264075Y-64081151D01*
X76170842Y-64293699D01*
X76113866Y-64518691D01*
X76113864Y-64518702D01*
X76094700Y-64749993D01*
X67905300Y-64749993D01*
X67886135Y-64518702D01*
X67886133Y-64518691D01*
X67829157Y-64293699D01*
X67735924Y-64081151D01*
X67608983Y-63886852D01*
X67608980Y-63886849D01*
X67608979Y-63886847D01*
X67451784Y-63716087D01*
X67451779Y-63716083D01*
X67451777Y-63716081D01*
X67268634Y-63573535D01*
X67268628Y-63573531D01*
X67064504Y-63463064D01*
X67064495Y-63463061D01*
X66844984Y-63387702D01*
X66673282Y-63359050D01*
X66616049Y-63349500D01*
X66383951Y-63349500D01*
X66338164Y-63357140D01*
X66155015Y-63387702D01*
X65935504Y-63463061D01*
X65935495Y-63463064D01*
X65731371Y-63573531D01*
X65731365Y-63573535D01*
X65548222Y-63716081D01*
X65548219Y-63716084D01*
X65391016Y-63886852D01*
X65264076Y-64081149D01*
X65237556Y-64141610D01*
X65192599Y-64195095D01*
X65125863Y-64215785D01*
X65058536Y-64197110D01*
X65011992Y-64145000D01*
X65000000Y-64091799D01*
X65000000Y-54749995D01*
X67745093Y-54749995D01*
X67745093Y-54750004D01*
X67764692Y-55011545D01*
X67764693Y-55011550D01*
X67823058Y-55267270D01*
X67918883Y-55511426D01*
X67918882Y-55511426D01*
X68050027Y-55738573D01*
X68097874Y-55798571D01*
X68709523Y-55186922D01*
X68800926Y-55323715D01*
X68926285Y-55449074D01*
X69063076Y-55540475D01*
X68450830Y-56152720D01*
X68622546Y-56269793D01*
X68622550Y-56269795D01*
X68858854Y-56383594D01*
X68858858Y-56383595D01*
X69109494Y-56460907D01*
X69109500Y-56460909D01*
X69368848Y-56499999D01*
X69368857Y-56500000D01*
X69631143Y-56500000D01*
X69631151Y-56499999D01*
X69890499Y-56460909D01*
X69890505Y-56460907D01*
X70141143Y-56383595D01*
X70377445Y-56269798D01*
X70377447Y-56269797D01*
X70549168Y-56152720D01*
X69936923Y-55540475D01*
X70073715Y-55449074D01*
X70199074Y-55323715D01*
X70290475Y-55186922D01*
X70902125Y-55798572D01*
X70949971Y-55738573D01*
X71081116Y-55511426D01*
X71176941Y-55267270D01*
X71235306Y-55011550D01*
X71235307Y-55011545D01*
X71254907Y-54750004D01*
X71254907Y-54749995D01*
X72744592Y-54749995D01*
X72744592Y-54750004D01*
X72764196Y-55011620D01*
X72764197Y-55011625D01*
X72822576Y-55267402D01*
X72822578Y-55267411D01*
X72822580Y-55267416D01*
X72918432Y-55511643D01*
X73049614Y-55738857D01*
X73181736Y-55904533D01*
X73213198Y-55943985D01*
X73394753Y-56112441D01*
X73405521Y-56122433D01*
X73622296Y-56270228D01*
X73622301Y-56270230D01*
X73622302Y-56270231D01*
X73622303Y-56270232D01*
X73747843Y-56330688D01*
X73858673Y-56384061D01*
X73858674Y-56384061D01*
X73858677Y-56384063D01*
X74109385Y-56461396D01*
X74368818Y-56500500D01*
X74631182Y-56500500D01*
X74890615Y-56461396D01*
X75141323Y-56384063D01*
X75377704Y-56270228D01*
X75594479Y-56122433D01*
X75786805Y-55943981D01*
X75950386Y-55738857D01*
X76081568Y-55511643D01*
X76177420Y-55267416D01*
X76235802Y-55011630D01*
X76235808Y-55011550D01*
X76255408Y-54750004D01*
X76255408Y-54749995D01*
X82495093Y-54749995D01*
X82495093Y-54750004D01*
X82514692Y-55011545D01*
X82514693Y-55011550D01*
X82573058Y-55267270D01*
X82668883Y-55511426D01*
X82668882Y-55511426D01*
X82800027Y-55738573D01*
X82847874Y-55798571D01*
X83459523Y-55186922D01*
X83550926Y-55323715D01*
X83676285Y-55449074D01*
X83813076Y-55540475D01*
X83200830Y-56152720D01*
X83372546Y-56269793D01*
X83372550Y-56269795D01*
X83608854Y-56383594D01*
X83608858Y-56383595D01*
X83859494Y-56460907D01*
X83859500Y-56460909D01*
X84118848Y-56499999D01*
X84118857Y-56500000D01*
X84381143Y-56500000D01*
X84381151Y-56499999D01*
X84640499Y-56460909D01*
X84640505Y-56460907D01*
X84891143Y-56383595D01*
X85127445Y-56269798D01*
X85127447Y-56269797D01*
X85299168Y-56152720D01*
X84686923Y-55540475D01*
X84823715Y-55449074D01*
X84949074Y-55323715D01*
X85040475Y-55186922D01*
X85652125Y-55798572D01*
X85699971Y-55738573D01*
X85831116Y-55511426D01*
X85926941Y-55267270D01*
X85985306Y-55011550D01*
X85985307Y-55011545D01*
X86004907Y-54750004D01*
X86004907Y-54749995D01*
X85985307Y-54488454D01*
X85985306Y-54488449D01*
X85926941Y-54232729D01*
X85831116Y-53988573D01*
X85831117Y-53988573D01*
X85699972Y-53761426D01*
X85652124Y-53701427D01*
X85040475Y-54313076D01*
X84949074Y-54176285D01*
X84823715Y-54050926D01*
X84686923Y-53959524D01*
X85299168Y-53347278D01*
X85127454Y-53230206D01*
X85127445Y-53230201D01*
X84891142Y-53116404D01*
X84891144Y-53116404D01*
X84640505Y-53039092D01*
X84640499Y-53039090D01*
X84381151Y-53000000D01*
X84118848Y-53000000D01*
X83859500Y-53039090D01*
X83859494Y-53039092D01*
X83608858Y-53116404D01*
X83608854Y-53116405D01*
X83372547Y-53230205D01*
X83372539Y-53230210D01*
X83200830Y-53347277D01*
X83813077Y-53959524D01*
X83676285Y-54050926D01*
X83550926Y-54176285D01*
X83459524Y-54313076D01*
X82847874Y-53701427D01*
X82800028Y-53761425D01*
X82668883Y-53988573D01*
X82573058Y-54232729D01*
X82514693Y-54488449D01*
X82514692Y-54488454D01*
X82495093Y-54749995D01*
X76255408Y-54749995D01*
X76235803Y-54488379D01*
X76235802Y-54488374D01*
X76235802Y-54488370D01*
X76177420Y-54232584D01*
X76081568Y-53988357D01*
X75950386Y-53761143D01*
X75786805Y-53556019D01*
X75786804Y-53556018D01*
X75786801Y-53556014D01*
X75594479Y-53377567D01*
X75550052Y-53347277D01*
X75377704Y-53229772D01*
X75377700Y-53229770D01*
X75377697Y-53229768D01*
X75377696Y-53229767D01*
X75141325Y-53115938D01*
X75141327Y-53115938D01*
X74890623Y-53038606D01*
X74890619Y-53038605D01*
X74890615Y-53038604D01*
X74765823Y-53019794D01*
X74631187Y-52999500D01*
X74631182Y-52999500D01*
X74368818Y-52999500D01*
X74368812Y-52999500D01*
X74207247Y-53023853D01*
X74109385Y-53038604D01*
X74109382Y-53038605D01*
X74109376Y-53038606D01*
X73858673Y-53115938D01*
X73622303Y-53229767D01*
X73622302Y-53229768D01*
X73622296Y-53229771D01*
X73622296Y-53229772D01*
X73621654Y-53230210D01*
X73405520Y-53377567D01*
X73213198Y-53556014D01*
X73049614Y-53761143D01*
X72918432Y-53988356D01*
X72822582Y-54232578D01*
X72822576Y-54232597D01*
X72764197Y-54488374D01*
X72764196Y-54488379D01*
X72744592Y-54749995D01*
X71254907Y-54749995D01*
X71235307Y-54488454D01*
X71235306Y-54488449D01*
X71176941Y-54232729D01*
X71081116Y-53988573D01*
X71081117Y-53988573D01*
X70949972Y-53761426D01*
X70902124Y-53701427D01*
X70290475Y-54313076D01*
X70199074Y-54176285D01*
X70073715Y-54050926D01*
X69936923Y-53959524D01*
X70549168Y-53347278D01*
X70377454Y-53230206D01*
X70377445Y-53230201D01*
X70141142Y-53116404D01*
X70141144Y-53116404D01*
X69890505Y-53039092D01*
X69890499Y-53039090D01*
X69631151Y-53000000D01*
X69368848Y-53000000D01*
X69109500Y-53039090D01*
X69109494Y-53039092D01*
X68858858Y-53116404D01*
X68858854Y-53116405D01*
X68622547Y-53230205D01*
X68622539Y-53230210D01*
X68450830Y-53347277D01*
X69063077Y-53959524D01*
X68926285Y-54050926D01*
X68800926Y-54176285D01*
X68709524Y-54313076D01*
X68097874Y-53701427D01*
X68050028Y-53761425D01*
X67918883Y-53988573D01*
X67823058Y-54232729D01*
X67764693Y-54488449D01*
X67764692Y-54488454D01*
X67745093Y-54749995D01*
X65000000Y-54749995D01*
X65000000Y-51100000D01*
X78094540Y-51100000D01*
X78114326Y-51288256D01*
X78114327Y-51288259D01*
X78172818Y-51468277D01*
X78172821Y-51468284D01*
X78267467Y-51632216D01*
X78394129Y-51772888D01*
X78547265Y-51884148D01*
X78547270Y-51884151D01*
X78720192Y-51961142D01*
X78720197Y-51961144D01*
X78905354Y-52000500D01*
X78905355Y-52000500D01*
X79094644Y-52000500D01*
X79094646Y-52000500D01*
X79279803Y-51961144D01*
X79452730Y-51884151D01*
X79605871Y-51772888D01*
X79732533Y-51632216D01*
X79827179Y-51468284D01*
X79885674Y-51288256D01*
X79891576Y-51232092D01*
X79918159Y-51167479D01*
X79927207Y-51157381D01*
X85022771Y-46061819D01*
X85084094Y-46028334D01*
X85110452Y-46025500D01*
X90077106Y-46025500D01*
X90144145Y-46045185D01*
X90189900Y-46097989D01*
X90199844Y-46167147D01*
X90184493Y-46211500D01*
X90172821Y-46231715D01*
X90172818Y-46231722D01*
X90114327Y-46411740D01*
X90114326Y-46411744D01*
X90094540Y-46600000D01*
X90114326Y-46788256D01*
X90114327Y-46788259D01*
X90172818Y-46968277D01*
X90172821Y-46968284D01*
X90267467Y-47132216D01*
X90329641Y-47201267D01*
X90394129Y-47272888D01*
X90547265Y-47384148D01*
X90547270Y-47384151D01*
X90720192Y-47461142D01*
X90720197Y-47461144D01*
X90905354Y-47500500D01*
X90964548Y-47500500D01*
X91031587Y-47520185D01*
X91052229Y-47536819D01*
X91276529Y-47761119D01*
X91310014Y-47822442D01*
X91305030Y-47892134D01*
X91263158Y-47948067D01*
X91197694Y-47972484D01*
X91188851Y-47972800D01*
X91154746Y-47972800D01*
X90987522Y-48006066D01*
X90987519Y-48006068D01*
X90829997Y-48071321D01*
X90688232Y-48166056D01*
X90567680Y-48286626D01*
X90567674Y-48286632D01*
X90472966Y-48428400D01*
X90472964Y-48428404D01*
X90407730Y-48585939D01*
X90374488Y-48753165D01*
X90374488Y-48753167D01*
X90374500Y-48836869D01*
X90374500Y-48874965D01*
X90374489Y-48875149D01*
X90374493Y-48907018D01*
X90374460Y-48907130D01*
X90374478Y-49043661D01*
X90374478Y-49043665D01*
X90407756Y-49210858D01*
X90407759Y-49210866D01*
X90473009Y-49368349D01*
X90473015Y-49368360D01*
X90567733Y-49510089D01*
X90567741Y-49510100D01*
X90688290Y-49630633D01*
X90688295Y-49630637D01*
X90830049Y-49725343D01*
X90987555Y-49790578D01*
X91154760Y-49823834D01*
X91240000Y-49823833D01*
X91250500Y-49823833D01*
X91317539Y-49843518D01*
X91363294Y-49896322D01*
X91374500Y-49947833D01*
X91374500Y-50499290D01*
X91374522Y-50499738D01*
X91374519Y-50522285D01*
X91354826Y-50589322D01*
X91302015Y-50635070D01*
X91250519Y-50646269D01*
X91172698Y-50646269D01*
X91172078Y-50646299D01*
X91154763Y-50646299D01*
X91099543Y-50657281D01*
X90987566Y-50679553D01*
X90987564Y-50679553D01*
X90987563Y-50679554D01*
X90956822Y-50692286D01*
X90830063Y-50744786D01*
X90688317Y-50839488D01*
X90688311Y-50839492D01*
X90567766Y-50960022D01*
X90567763Y-50960025D01*
X90567762Y-50960027D01*
X90504923Y-51054055D01*
X90473041Y-51101762D01*
X90407786Y-51259259D01*
X90374509Y-51426451D01*
X90374507Y-51444299D01*
X90374500Y-51444467D01*
X90374500Y-51511688D01*
X90374489Y-51595140D01*
X90374500Y-51595319D01*
X90374500Y-51699290D01*
X90374522Y-51699738D01*
X90374519Y-51716934D01*
X90407761Y-51884148D01*
X90407764Y-51884161D01*
X90413205Y-51897300D01*
X90472995Y-52041685D01*
X90567705Y-52183455D01*
X90567707Y-52183457D01*
X90688254Y-52304021D01*
X90688256Y-52304022D01*
X90688257Y-52304023D01*
X90717081Y-52323284D01*
X90761883Y-52376896D01*
X90770589Y-52446222D01*
X90755574Y-52488382D01*
X90672820Y-52631718D01*
X90672818Y-52631722D01*
X90614327Y-52811740D01*
X90614326Y-52811744D01*
X90594540Y-53000000D01*
X90614326Y-53188256D01*
X90614327Y-53188259D01*
X90671444Y-53364048D01*
X90673439Y-53433889D01*
X90637359Y-53493722D01*
X90574658Y-53524550D01*
X90505243Y-53516585D01*
X90469172Y-53493265D01*
X90344479Y-53377567D01*
X90300052Y-53347277D01*
X90127704Y-53229772D01*
X90127700Y-53229770D01*
X90127697Y-53229768D01*
X90127696Y-53229767D01*
X89891325Y-53115938D01*
X89891327Y-53115938D01*
X89640623Y-53038606D01*
X89640619Y-53038605D01*
X89640615Y-53038604D01*
X89515823Y-53019794D01*
X89381187Y-52999500D01*
X89381182Y-52999500D01*
X89118818Y-52999500D01*
X89118812Y-52999500D01*
X88957247Y-53023853D01*
X88859385Y-53038604D01*
X88859382Y-53038605D01*
X88859376Y-53038606D01*
X88608673Y-53115938D01*
X88372303Y-53229767D01*
X88372302Y-53229768D01*
X88372296Y-53229771D01*
X88372296Y-53229772D01*
X88371654Y-53230210D01*
X88155520Y-53377567D01*
X87963198Y-53556014D01*
X87799614Y-53761143D01*
X87668432Y-53988356D01*
X87572582Y-54232578D01*
X87572576Y-54232597D01*
X87514197Y-54488374D01*
X87514196Y-54488379D01*
X87494592Y-54749995D01*
X87494592Y-54750004D01*
X87514196Y-55011620D01*
X87514197Y-55011625D01*
X87572576Y-55267402D01*
X87572578Y-55267411D01*
X87572580Y-55267416D01*
X87668432Y-55511643D01*
X87799614Y-55738857D01*
X87931736Y-55904533D01*
X87963198Y-55943985D01*
X88144753Y-56112441D01*
X88155521Y-56122433D01*
X88372296Y-56270228D01*
X88372301Y-56270230D01*
X88372302Y-56270231D01*
X88372303Y-56270232D01*
X88497843Y-56330688D01*
X88608673Y-56384061D01*
X88608674Y-56384061D01*
X88608677Y-56384063D01*
X88859385Y-56461396D01*
X89118818Y-56500500D01*
X89381182Y-56500500D01*
X89640615Y-56461396D01*
X89891323Y-56384063D01*
X90127704Y-56270228D01*
X90344479Y-56122433D01*
X90536805Y-55943981D01*
X90700386Y-55738857D01*
X90831568Y-55511643D01*
X90927420Y-55267416D01*
X90985802Y-55011630D01*
X90985808Y-55011550D01*
X91005408Y-54750004D01*
X91005408Y-54749995D01*
X90985803Y-54488379D01*
X90985802Y-54488374D01*
X90985802Y-54488370D01*
X90927420Y-54232584D01*
X90831568Y-53988357D01*
X90764308Y-53871859D01*
X90747836Y-53803962D01*
X90770688Y-53737935D01*
X90825609Y-53694745D01*
X90895163Y-53688103D01*
X90944581Y-53709544D01*
X91047265Y-53784148D01*
X91047270Y-53784151D01*
X91220192Y-53861142D01*
X91220197Y-53861144D01*
X91405354Y-53900500D01*
X91405355Y-53900500D01*
X91594644Y-53900500D01*
X91594646Y-53900500D01*
X91779803Y-53861144D01*
X91952730Y-53784151D01*
X92105871Y-53672888D01*
X92232533Y-53532216D01*
X92327179Y-53368284D01*
X92385674Y-53188256D01*
X92403321Y-53020346D01*
X92429904Y-52955735D01*
X92438961Y-52945629D01*
X92485857Y-52898734D01*
X92554311Y-52796286D01*
X92601463Y-52682452D01*
X92625500Y-52561607D01*
X92625500Y-52438394D01*
X92625500Y-52195319D01*
X92625510Y-52195140D01*
X92625509Y-52187641D01*
X92625510Y-52187638D01*
X92625506Y-52163086D01*
X92625536Y-52162983D01*
X92625530Y-52111688D01*
X92625531Y-52111688D01*
X92625521Y-52026448D01*
X92625520Y-52026445D01*
X92625520Y-52021315D01*
X92645197Y-51954273D01*
X92697995Y-51908512D01*
X92749520Y-51897300D01*
X92845252Y-51897300D01*
X92869050Y-51892565D01*
X93012477Y-51864033D01*
X93169999Y-51798780D01*
X93311762Y-51704047D01*
X93432318Y-51583475D01*
X93527033Y-51441700D01*
X93592266Y-51284170D01*
X93625511Y-51116940D01*
X93625500Y-51031688D01*
X93625500Y-50995319D01*
X93625510Y-50995140D01*
X93625509Y-50987641D01*
X93625510Y-50987638D01*
X93625506Y-50963086D01*
X93625536Y-50962983D01*
X93625530Y-50911688D01*
X93625531Y-50911688D01*
X93625521Y-50826448D01*
X93592243Y-50659247D01*
X93592242Y-50659244D01*
X93526990Y-50501755D01*
X93526988Y-50501752D01*
X93526987Y-50501749D01*
X93432262Y-50360007D01*
X93311706Y-50239467D01*
X93169952Y-50144760D01*
X93169948Y-50144758D01*
X93169946Y-50144757D01*
X93012447Y-50079525D01*
X92956710Y-50068439D01*
X92845240Y-50046268D01*
X92845238Y-50046268D01*
X92760000Y-50046269D01*
X92749500Y-50046269D01*
X92682461Y-50026584D01*
X92636706Y-49973780D01*
X92625500Y-49922269D01*
X92625500Y-49370636D01*
X92625475Y-49370147D01*
X92625479Y-49347811D01*
X92645176Y-49280775D01*
X92697988Y-49235029D01*
X92749479Y-49223833D01*
X92827519Y-49223833D01*
X92828165Y-49223800D01*
X92845237Y-49223801D01*
X93012436Y-49190546D01*
X93169935Y-49125314D01*
X93311684Y-49030611D01*
X93432235Y-48910076D01*
X93526958Y-48768341D01*
X93592211Y-48610850D01*
X93625489Y-48443656D01*
X93625491Y-48426283D01*
X93625500Y-48426112D01*
X93625500Y-48358247D01*
X93625509Y-48286626D01*
X93625510Y-48282470D01*
X93625509Y-48282466D01*
X93625510Y-48275149D01*
X93625500Y-48274965D01*
X93625500Y-48170637D01*
X93625475Y-48170148D01*
X93625478Y-48153170D01*
X93592236Y-47985945D01*
X93527006Y-47828420D01*
X93432295Y-47686649D01*
X93311744Y-47566081D01*
X93311742Y-47566080D01*
X93311739Y-47566077D01*
X93169993Y-47471354D01*
X93169987Y-47471351D01*
X93169985Y-47471350D01*
X93012469Y-47406099D01*
X92956729Y-47395010D01*
X92845251Y-47372833D01*
X92845249Y-47372833D01*
X92821606Y-47372833D01*
X92665579Y-47372833D01*
X92598540Y-47353148D01*
X92556220Y-47307284D01*
X92554312Y-47303715D01*
X92485858Y-47201267D01*
X92485855Y-47201263D01*
X92394414Y-47109822D01*
X92394391Y-47109801D01*
X91938960Y-46654370D01*
X91905475Y-46593047D01*
X91903323Y-46579671D01*
X91885674Y-46411744D01*
X91827179Y-46231716D01*
X91732533Y-46067784D01*
X91729284Y-46062156D01*
X91731929Y-46060628D01*
X91712779Y-46007421D01*
X91728417Y-45939323D01*
X91729344Y-45937879D01*
X91729284Y-45937844D01*
X91772275Y-45863381D01*
X91827179Y-45768284D01*
X91885674Y-45588256D01*
X91905460Y-45400000D01*
X91885674Y-45211744D01*
X91827179Y-45031716D01*
X91732533Y-44867784D01*
X91605871Y-44727112D01*
X91605870Y-44727111D01*
X91452734Y-44615851D01*
X91452729Y-44615848D01*
X91279807Y-44538857D01*
X91279802Y-44538855D01*
X91134001Y-44507865D01*
X91094646Y-44499500D01*
X90905354Y-44499500D01*
X90872897Y-44506398D01*
X90720197Y-44538855D01*
X90720192Y-44538857D01*
X90547270Y-44615848D01*
X90547265Y-44615851D01*
X90394130Y-44727110D01*
X90394126Y-44727114D01*
X90388400Y-44733474D01*
X90328913Y-44770121D01*
X90296252Y-44774500D01*
X84738389Y-44774500D01*
X84677971Y-44786518D01*
X84634743Y-44795116D01*
X84617546Y-44798537D01*
X84503716Y-44845687D01*
X84503707Y-44845692D01*
X84401268Y-44914140D01*
X84357705Y-44957703D01*
X84314142Y-45001267D01*
X79152228Y-50163181D01*
X79090905Y-50196666D01*
X79064547Y-50199500D01*
X78905354Y-50199500D01*
X78887820Y-50203227D01*
X78720197Y-50238855D01*
X78720192Y-50238857D01*
X78547270Y-50315848D01*
X78547265Y-50315851D01*
X78394129Y-50427111D01*
X78267466Y-50567785D01*
X78172821Y-50731715D01*
X78172818Y-50731722D01*
X78137802Y-50839492D01*
X78114326Y-50911744D01*
X78094540Y-51100000D01*
X65000000Y-51100000D01*
X65000000Y-46151885D01*
X65019685Y-46084846D01*
X65036948Y-46063579D01*
X71963793Y-39235690D01*
X72025355Y-39202647D01*
X72050841Y-39200000D01*
X86950220Y-39200000D01*
X87017259Y-39219685D01*
G37*
%TD.AperFunction*%
%TD*%
M02*
