M48
; DRILL file {KiCad 8.0.6} date 2024-12-04T14:06:03-0800
; FORMAT={-:-/ absolute / inch / decimal}
; #@! TF.CreationDate,2024-12-04T14:06:03-08:00
; #@! TF.GenerationSoftware,Kicad,Pcbnew,8.0.6
; #@! TF.FileFunction,Plated,1,2,PTH
FMAT,2
INCH
; #@! TA.AperFunction,Plated,PTH,ViaDrill
T1C0.0157
; #@! TA.AperFunction,Plated,PTH,ComponentDrill
T2C0.0433
; #@! TA.AperFunction,Plated,PTH,ComponentDrill
T3C0.0709
%
G90
G05
T1
X2.6772Y-1.7815
X2.6772Y-1.8504
X2.6772Y-1.9193
X2.6772Y-1.9882
X2.6969Y-2.0472
X2.8751Y-1.7323
X2.9331Y-1.7323
X3.0138Y-2.0079
X3.0217Y-1.8701
X3.0512Y-2.0276
X3.0906Y-1.7815
X3.1102Y-2.0118
X3.1299Y-1.7008
X3.2185Y-1.7126
X3.2244Y-1.8228
X3.2244Y-2.2677
X3.2466Y-2.0103
X3.3858Y-1.998
X3.4252Y-1.7165
X3.437Y-1.8898
X3.4547Y-1.998
X3.5433Y-1.9675
X3.5827Y-1.7874
X3.5827Y-1.8346
X3.6024Y-2.0866
T2
X2.6181Y-2.5492
X3.0512Y-2.5492
X3.1988Y-2.5492
X3.6319Y-2.5492
T3
X2.7362Y-2.1555
X2.9331Y-2.1555
X3.3169Y-2.1555
X3.5138Y-2.1555
M30
